<svg id="folder-shared-fill" xmlns="http://www.w3.org/2000/svg" width="24" height="24" viewBox="0 0 24 24">
  <path id="Path_69314" data-name="Path 69314" d="M0,0H24V24H0Z" fill="none"/>
  <path id="Path_69315" data-name="Path 69315" d="M22,13.126A6,6,0,0,0,13.3,21H3a1,1,0,0,1-1-1V4A1,1,0,0,1,3,3h7.414l2,2H21a1,1,0,0,1,1,1v7.126Z" fill="#fff"/>
  <path id="Path_69316" data-name="Path 69316" d="M45.852,38.35a3.984,3.984,0,0,0-.836-.268,4.181,4.181,0,0,0-4.824,5.35,4.058,4.058,0,0,0,.368.836,4.18,4.18,0,1,0,5.292-5.919ZM46.27,42.6H44.6v1.672h-.836V42.6H42.09v-.836h1.672V40.089H44.6v1.672H46.27Z" transform="translate(-25.362 -24.027)" fill="#fff"/>
</svg>
