<svg xmlns="http://www.w3.org/2000/svg" width="322.873" height="205" viewBox="0 0 322.873 205">
  <g id="Group_11553" data-name="Group 11553" transform="translate(-41.263 -90)">
    <path id="Path_8949" data-name="Path 8949" d="M38.748,4.833H23.084V.81a.8.8,0,0,0-.291-.627A.839.839,0,0,0,22.111,0L.676,4.028a.81.81,0,0,0-.676.8V33.8a.81.81,0,0,0,.676.789l21.435,4.023h.148a.815.815,0,0,0,.824-.8V33.8H38.748a.815.815,0,0,0,.824-.8V5.637A.815.815,0,0,0,38.748,4.833ZM18.138,13.088l-3.3,12.069a.872.872,0,0,1-1.649.016l-2.506-8.658-2.44,7.869a.757.757,0,0,1-.808.563.822.822,0,0,1-.841-.612L4.122,14.681a.827.827,0,0,1,.627-1,.849.849,0,0,1,1.022.612l1.748,6.855,2.374-7.708a.972.972,0,0,1,.824-.563.823.823,0,0,1,.824.579l2.473,8.465,2.473-9.253a.854.854,0,0,1,1.039-.6A.83.83,0,0,1,18.138,13.088Zm19.786,19.1H23.084V29.776H35.451a.8.8,0,1,0,0-1.609H23.084V24.948H35.451a.8.8,0,1,0,0-1.609H23.084V20.121H35.451a.8.8,0,1,0,0-1.609H23.084V15.293H35.451a.8.8,0,1,0,0-1.609H23.084V10.465H35.451a.8.8,0,1,0,0-1.609H23.084V6.442h14.84Z" transform="matrix(0.978, -0.208, 0.208, 0.978, 41.264, 206.593)" fill="#7ab9f7"/>
    <g id="Group_11515" data-name="Group 11515" transform="matrix(0.883, 0.469, -0.469, 0.883, 278.213, 133.709)">
      <path id="Path_8952" data-name="Path 8952" d="M107.072,25.469h26.262l7.761,7.854V71.308H107.072Z" transform="translate(-34.633 -6.116)" fill="#7ab9f7" fill-rule="evenodd"/>
      <path id="Path_8953" data-name="Path 8953" d="M134.981,65.937H100.957a.744.744,0,0,1-.744-.745V19.353a.744.744,0,0,1,.744-.744H127.22a.744.744,0,0,1,.529.221l7.762,7.854a.746.746,0,0,1,.215.523V65.192a.744.744,0,0,1-.745.745ZM101.7,64.448h32.535V27.513L126.908,20.1H101.7Z" transform="translate(-28.518 0)" fill="#1c64cc"/>
      <path id="Path_8954" data-name="Path 8954" d="M129.981,177.616h34.024v11.459H129.981Z" transform="translate(-55.056 -141.752)" fill="#fff" fill-rule="evenodd"/>
      <path id="Path_8955" data-name="Path 8955" d="M203.5,208.454h-1.2v-1.066h1.2Zm2.443-2.2v2.2h-1.214v-6.088h2.4a2.4,2.4,0,0,1,1.633.541,1.816,1.816,0,0,1,.592,1.4,1.8,1.8,0,0,1-.592,1.4,2.324,2.324,0,0,1-1.633.54Zm0-.949h1.185a.988.988,0,0,0,.766-.278.951.951,0,0,0,.26-.7,1.046,1.046,0,0,0-.26-.73.988.988,0,0,0-.766-.278h-1.185Zm4.293,3.153v-6.088h2.067a2.506,2.506,0,0,1,1.821.716,2.474,2.474,0,0,1,.722,1.825v1.007a2.459,2.459,0,0,1-2.544,2.54Zm1.214-5.139v4.19h.795a1.244,1.244,0,0,0,1.012-.438,1.724,1.724,0,0,0,.376-1.153v-1.007a1.722,1.722,0,0,0-.376-1.153,1.246,1.246,0,0,0-1.012-.438Zm8.065,2.613H217v2.526h-1.214v-6.088h4.148v.949H217v1.679h2.515Z" transform="translate(-119.529 -163.816)" fill="#1c64cc"/>
      <path id="Path_8957" data-name="Path 8957" d="M349.08,33.323h7.761l-7.761-7.854Z" transform="translate(-250.378 -6.116)" fill="#7ab9f7" fill-rule="evenodd"/>
      <path id="Path_8958" data-name="Path 8958" d="M231.841,27.952h-7.761a.744.744,0,0,1-.744-.744V19.353a.744.744,0,0,1,1.274-.523l7.762,7.854a.745.745,0,0,1-.53,1.268Zm-7.017-1.489h5.235l-5.235-5.3Z" transform="translate(-125.377)" fill="#1c64cc"/>
      <path id="Path_8960" data-name="Path 8960" d="M221.076,304.3a10.106,10.106,0,0,0-1.893.2,18.8,18.8,0,0,1-2.862-4.307c.752-3.212.376-3.664.217-3.868-.188-.234-.434-.6-.723-.6a4.077,4.077,0,0,0-.564.088,1.062,1.062,0,0,0-.636.7c-.4.934.145,2.54.708,3.781a39.432,39.432,0,0,1-2.139,6.117c-2.139.992-3.267,1.956-3.368,2.876a1.385,1.385,0,0,0,.622,1.285.925.925,0,0,0,.549.19c.491,0,.983-.395,1.561-1.212a13.872,13.872,0,0,0,1.344-2.408,26.664,26.664,0,0,1,4.972-1.606,3.758,3.758,0,0,0,2.385,1.3,1.47,1.47,0,0,0,1.243-.686,1.126,1.126,0,0,0,.217-1.227C222.492,304.5,221.957,304.3,221.076,304.3ZM211,309.8c-.26-.2-.246-.35-.246-.394.029-.322.52-.876,1.734-1.563C211.566,309.553,211.089,309.771,211,309.8Zm4.611-13.051c.029,0,.593.627.058,1.839A1.418,1.418,0,0,1,215.613,296.75Zm-1.156,9.123a41.976,41.976,0,0,0,1.5-4.306,19.979,19.979,0,0,0,2.154,3.153A27.932,27.932,0,0,0,214.456,305.874Zm7.27-.277a.828.828,0,0,1-.679.248c-.3,0-.419-.175-.881-.526a6.945,6.945,0,0,1,1.026-.073,1.183,1.183,0,0,1,.665.116A.828.828,0,0,1,221.726,305.6Z" transform="translate(-126.219 -247.047)" fill="#1c64cc"/>
    </g>
    <g id="Ellipse_564" data-name="Ellipse 564" transform="translate(309 273)" fill="none" stroke="#7ab9f7" stroke-width="4">
      <circle cx="11" cy="11" r="11" stroke="none"/>
      <circle cx="11" cy="11" r="9" fill="none"/>
    </g>
    <g id="Ellipse_565" data-name="Ellipse 565" transform="translate(78 154)" fill="none" stroke="#7ab9f7" stroke-width="4">
      <circle cx="8" cy="8" r="8" stroke="none"/>
      <circle cx="8" cy="8" r="6" fill="none"/>
    </g>
    <g id="Group_11517" data-name="Group 11517">
      <rect id="Rectangle_71" data-name="Rectangle 71" width="6" height="18" rx="3" transform="translate(215 90)" fill="#7ab9f7"/>
      <rect id="Rectangle_72" data-name="Rectangle 72" width="6" height="18" rx="3" transform="translate(227 96) rotate(90)" fill="#7ab9f7"/>
    </g>
    <g id="Group_11518" data-name="Group 11518" transform="translate(-106.718 173.282)">
      <rect id="Rectangle_71-2" data-name="Rectangle 71" width="4" height="12" rx="2" transform="translate(212.718 89.718)" fill="#7ab9f7"/>
      <rect id="Rectangle_72-2" data-name="Rectangle 72" width="4" height="12" rx="2" transform="translate(220.718 93.718) rotate(90)" fill="#7ab9f7"/>
    </g>
  </g>
</svg>
