<svg xmlns="http://www.w3.org/2000/svg" width="48" height="48" viewBox="0 0 48 48">
  <g id="pdf" transform="translate(-20 -310)">
    <rect id="Rectangle_57" data-name="Rectangle 57" width="48" height="48" rx="3" transform="translate(20 310)" fill="#7ab9f7"/>
    <path id="Icon_awesome-file-pdf" data-name="Icon awesome-file-pdf" d="M11.4,16.045a6.045,6.045,0,0,1-.125-2.938C11.8,13.107,11.747,15.418,11.4,16.045ZM11.29,19A28.909,28.909,0,0,1,9.51,22.93a23.07,23.07,0,0,1,3.941-1.372A8.116,8.116,0,0,1,11.29,19Zm-5.9,7.819c0,.05.827-.338,2.187-2.519A8.659,8.659,0,0,0,5.394,26.821Zm10.143-16.8h8.521V30.574a1.5,1.5,0,0,1-1.5,1.5H1.5a1.5,1.5,0,0,1-1.5-1.5V1.5A1.5,1.5,0,0,1,1.5,0h12.53V8.521A1.508,1.508,0,0,0,15.537,10.024Zm-.5,10.763a6.288,6.288,0,0,1-2.675-3.371c.282-1.159.727-2.92.388-4.022a1.569,1.569,0,0,0-2.995-.426c-.313,1.147-.025,2.763.507,4.824a58.831,58.831,0,0,1-2.556,5.375c-.006,0-.006.006-.013.006-1.7.871-4.611,2.788-3.414,4.26a1.947,1.947,0,0,0,1.347.627c1.121,0,2.237-1.128,3.828-3.872A35.712,35.712,0,0,1,14.4,22.736a9.495,9.495,0,0,0,4.01,1.222,1.622,1.622,0,0,0,1.234-2.719c-.871-.852-3.4-.608-4.611-.451ZM23.619,6.578,17.48.439A1.5,1.5,0,0,0,16.414,0h-.376V8.019h8.019V7.637A1.5,1.5,0,0,0,23.619,6.578ZM18.977,22.573c.257-.169-.157-.746-2.681-.564C18.62,23,18.977,22.573,18.977,22.573Z" transform="translate(32 318)" fill="#fff"/>
  </g>
</svg>
