<svg xmlns="http://www.w3.org/2000/svg" width="32" height="32" viewBox="0 0 32 32">
  <g id="pdf" transform="translate(-292 -203)">
    <g id="Group_11555" data-name="Group 11555" transform="translate(292.388 203.388)">
      <rect id="Rectangle_84" data-name="Rectangle 84" width="32" height="32" rx="5" transform="translate(-0.388 -0.388)" fill="#7ab9f7"/>
    </g>
    <g id="Group_11557" data-name="Group 11557" transform="translate(301 210)">
      <path id="Path_8952" data-name="Path 8952" d="M0,0H10L12.96,2.992V17.461H0Z" transform="translate(0.284 0.284)" fill="#fff" fill-rule="evenodd"/>
      <path id="Path_8953" data-name="Path 8953" d="M13.244,18.028H.284A.283.283,0,0,1,0,17.744V.284A.283.283,0,0,1,.284,0h10a.283.283,0,0,1,.2.084l2.957,2.992a.284.284,0,0,1,.082.2V17.744a.284.284,0,0,1-.284.284ZM.567,17.461H12.96V3.392L10.169.567H.567Z" transform="translate(0 0)" fill="#fff"/>
      <path id="Path_8954" data-name="Path 8954" d="M0,0H12.96V4.365H0Z" transform="translate(1.23 6.573)" fill="#7ab9f7" fill-rule="evenodd"/>
      <path id="Path_8955" data-name="Path 8955" d="M.457,2.319H0V1.913H.457Zm.93-.84v.84H.925V0h.914a.912.912,0,0,1,.622.206A.692.692,0,0,1,2.687.74a.684.684,0,0,1-.226.534.885.885,0,0,1-.622.206Zm0-.361h.451a.377.377,0,0,0,.292-.106.362.362,0,0,0,.1-.267.4.4,0,0,0-.1-.278A.377.377,0,0,0,1.839.361H1.388Zm1.635,1.2V0H3.81A.955.955,0,0,1,4.5.273a.942.942,0,0,1,.275.695v.384a.937.937,0,0,1-.969.967ZM3.485.362v1.6h.3a.474.474,0,0,0,.385-.167.657.657,0,0,0,.143-.439V.968A.656.656,0,0,0,4.173.528.475.475,0,0,0,3.788.362Zm3.072,1H5.6v.962H5.137V0h1.58V.362H5.6V1h.958Z" transform="translate(4.22 7.596)" fill="#fff"/>
      <path id="Path_8957" data-name="Path 8957" d="M0,2.992H2.956L0,0Z" transform="translate(10.287 0.284)" fill="#7ab9f7" fill-rule="evenodd"/>
      <path id="Path_8958" data-name="Path 8958" d="M3.24,3.559H.284A.283.283,0,0,1,0,3.275V.284a.284.284,0,0,1,.485-.2L3.442,3.076a.284.284,0,0,1-.2.483ZM.567,2.992H2.561L.567.974Z" transform="translate(10.004)" fill="#7ab9f7"/>
      <path id="Path_8960" data-name="Path 8960" d="M4.292,3.264a3.851,3.851,0,0,0-.721.078A7.161,7.161,0,0,1,2.481,1.7c.286-1.223.143-1.4.083-1.474S2.4,0,2.288,0a1.551,1.551,0,0,0-.215.033A.4.4,0,0,0,1.832.3a2.146,2.146,0,0,0,.27,1.44,15.021,15.021,0,0,1-.815,2.33C.472,4.449.042,4.816,0,5.166a.528.528,0,0,0,.237.489.352.352,0,0,0,.209.072c.187,0,.374-.15.595-.462a5.284,5.284,0,0,0,.512-.917A10.154,10.154,0,0,1,3.45,3.737a1.432,1.432,0,0,0,.908.5.56.56,0,0,0,.473-.261A.429.429,0,0,0,4.915,3.5C4.832,3.342,4.628,3.264,4.292,3.264ZM.455,5.36c-.1-.078-.094-.133-.094-.15.011-.123.2-.334.661-.6C.67,5.266.488,5.349.455,5.36ZM2.211.389c.011,0,.226.239.022.7A.54.54,0,0,1,2.211.389ZM1.771,3.865a15.989,15.989,0,0,0,.573-1.64,7.614,7.614,0,0,0,.821,1.2A10.641,10.641,0,0,0,1.771,3.865ZM4.54,3.759a.315.315,0,0,1-.259.094c-.116,0-.16-.067-.336-.2a2.647,2.647,0,0,1,.391-.028.451.451,0,0,1,.253.044A.316.316,0,0,1,4.54,3.759Z" transform="translate(4.53 11.455)" fill="#7ab9f7"/>
    </g>
  </g>
</svg>
