<svg xmlns="http://www.w3.org/2000/svg" xmlns:xlink="http://www.w3.org/1999/xlink" width="34" height="34" viewBox="0 0 34 34">
  <defs>
    <linearGradient id="linear-gradient" x1="0.5" x2="0.5" y2="1" gradientUnits="objectBoundingBox">
      <stop offset="0" stop-color="#2fa1fd"/>
      <stop offset="1" stop-color="#0258d6"/>
    </linearGradient>
  </defs>
  <g id="Group_11588" data-name="Group 11588" transform="translate(-238 -737)">
    <rect id="Rectangle_623" data-name="Rectangle 623" width="34" height="34" rx="8" transform="translate(238 737)" fill="url(#linear-gradient)"/>
    <g id="server-fill" transform="translate(243 742)">
      <path id="Path_9068" data-name="Path 9068" d="M0,0H24V24H0Z" fill="none"/>
      <path id="Path_9069" data-name="Path 9069" d="M4,3H20a1,1,0,0,1,1,1v7H3V4A1,1,0,0,1,4,3ZM3,13H21v7a1,1,0,0,1-1,1H4a1,1,0,0,1-1-1Zm4,3v2h3V16ZM7,6V8h3V6Z" fill="#fff"/>
    </g>
  </g>
</svg>
