<svg xmlns="http://www.w3.org/2000/svg" xmlns:xlink="http://www.w3.org/1999/xlink" width="34" height="34" viewBox="0 0 34 34">
  <defs>
    <linearGradient id="linear-gradient" x1="0.5" x2="0.5" y2="1" gradientUnits="objectBoundingBox">
      <stop offset="0" stop-color="#2fa1fd"/>
      <stop offset="1" stop-color="#0258d6"/>
    </linearGradient>
  </defs>
  <g id="Group_11526" data-name="Group 11526" transform="translate(-133 -694)">
    <rect id="Rectangle_74" data-name="Rectangle 74" width="34" height="34" rx="8" transform="translate(133 694)" fill="url(#linear-gradient)"/>
    <g id="fb89705ae6d743bf1e848c206e16a1d7" transform="translate(141.398 701.481)">
      <g id="Group_11525" data-name="Group 11525" transform="translate(0 0)">
        <path id="Path_8975" data-name="Path 8975" d="M71.537,23.466a2.763,2.763,0,0,0-1.877.736l-6.811-3.971a2.663,2.663,0,0,0,0-1.338l6.737-3.932a2.862,2.862,0,1,0-.917-2.094,2.812,2.812,0,0,0,.085.668l-6.737,3.932a2.867,2.867,0,1,0,0,4.188l6.811,3.971a2.652,2.652,0,0,0-.078.626,2.786,2.786,0,1,0,2.786-2.786Z" transform="translate(-57.2 -10)" fill="#fff"/>
      </g>
    </g>
  </g>
</svg>
