<svg xmlns="http://www.w3.org/2000/svg" width="48" height="48" viewBox="0 0 48 48">
  <g id="word" transform="translate(-20 -376)">
    <g id="Rectangle_59" data-name="Rectangle 59" transform="translate(20 376)" fill="#7ab9f7" stroke="#dcdcdc" stroke-width="0.5">
      <rect width="48" height="48" rx="3" stroke="none"/>
      <rect x="0.25" y="0.25" width="47.5" height="47.5" rx="2.75" fill="none"/>
    </g>
    <path id="Path_9067" data-name="Path 9067" d="M32.107,4H19.128V.669a.66.66,0,0,0-.241-.52A.7.7,0,0,0,18.322,0L.56,3.336A.671.671,0,0,0,0,4V28a.671.671,0,0,0,.56.653l17.761,3.334h.123a.675.675,0,0,0,.683-.667V28H32.107a.675.675,0,0,0,.683-.667V4.67A.675.675,0,0,0,32.107,4ZM15.029,10.844l-2.733,10a.723.723,0,0,1-1.366.013L8.853,13.684,6.831,20.2a.627.627,0,0,1-.669.467.681.681,0,0,1-.7-.507l-2.049-8a.685.685,0,0,1,.519-.827.7.7,0,0,1,.847.507l1.448,5.68L8.2,11.137a.806.806,0,0,1,.683-.467.682.682,0,0,1,.683.48l2.049,7.014L13.663,10.5A.708.708,0,0,1,14.523,10,.688.688,0,0,1,15.029,10.844Zm16.4,15.828h-12.3v-2H29.375a.667.667,0,1,0,0-1.333H19.128V20.671H29.375a.667.667,0,1,0,0-1.333H19.128V16.671H29.375a.667.667,0,1,0,0-1.333H19.128V12.67H29.375a.667.667,0,1,0,0-1.333H19.128V8.67H29.375a.667.667,0,1,0,0-1.333H19.128v-2h12.3Z" transform="translate(28 384.008)" fill="#fff"/>
  </g>
</svg>
