<svg xmlns="http://www.w3.org/2000/svg" width="32" height="32" viewBox="0 0 32 32">
  <g id="word" transform="translate(-298 -257)">
    <rect id="Rectangle_83" data-name="Rectangle 83" width="32" height="32" rx="5" transform="translate(298 257)" fill="#7ab9f7"/>
    <path id="Path_9046" data-name="Path 9046" d="M18.06,2.256h-7.3V.381a.371.371,0,0,0-.136-.292.391.391,0,0,0-.318-.083L.315,1.881A.377.377,0,0,0,0,2.256v13.5a.378.378,0,0,0,.315.368L10.306,18h.069a.38.38,0,0,0,.384-.375V15.757h7.3a.38.38,0,0,0,.384-.375V2.631A.38.38,0,0,0,18.06,2.256ZM8.454,6.1,6.917,11.73a.407.407,0,0,1-.769.007L4.98,7.7,3.843,11.37a.353.353,0,0,1-.377.263.383.383,0,0,1-.392-.285l-1.153-4.5a.385.385,0,0,1,.292-.465.4.4,0,0,1,.476.285l.815,3.2L4.611,6.269A.453.453,0,0,1,5,6.007a.384.384,0,0,1,.384.27l1.153,3.945L7.685,5.909a.4.4,0,0,1,.484-.278A.387.387,0,0,1,8.454,6.1Zm9.222,8.9H10.759V13.882h5.764a.375.375,0,1,0,0-.75H10.759v-1.5h5.764a.375.375,0,1,0,0-.75H10.759v-1.5h5.764a.375.375,0,1,0,0-.75H10.759v-1.5h5.764a.375.375,0,1,0,0-.75H10.759v-1.5h5.764a.375.375,0,1,0,0-.75H10.759V3.006h6.917Z" transform="translate(305 264)" fill="#fff"/>
  </g>
</svg>
